#!OML:ASF E:/inclinewalkrobotboard/Project1/Captureday1/Session1/subject1.ASF
:FULLY-SPECIFIED
:DEGREES
238
root 0 0 0 -0.2901057980301962 -32.83951580053116 0.548156561877182
lowerback 17.321564183028286 0.6412948227677449 -0.669723533727641
upperback 4.846495185853675 0.4859277280214513 0.1992147139092052
thorax -4.446062182186497 0.203510451334486 0.422886409817927
lowerneck -5.059094895099787 -5.530446427364209 -7.715223131450169
upperneck -4.307323151055803 -7.170001274256764 10.849336584724844
head 0.062174105290596415 -3.551646658384401 4.363501303888656
rclavicle -3.403437273978801E-15 1.3084757273189191E-16
rhumerus -8.909188637022408 -1.855249288843435 -70.07527977926405
rradius 11.500036148514127
rwrist 41.68246973485957
rhand -6.482242751819815 19.538564787340995
rfingers 7.125020000000034
rthumb 19.329324536737168 -10.12898146394327
lclavicle -6.723456169970187E-17 1.506033550329822E-17
lhumerus 17.80622608539902 -32.85833828977524 70.0739454215374
lradius 124.72110968344282
lwrist 53.49498214933775
lhand -26.750955483639864 42.726868397097896
lfingers 7.142213188680844
lthumb -0.03632172773890119 53.06853622462341
rfemur -34.71990738963294 4.204272390726081 7.629781001641905
rtibia 58.70736760361203
rfoot -2.9815466646442133 -8.545033848652018
rtoes -3.609451485809198
lfemur -4.87433559981463 -4.532039577266114 -15.18747908427509
ltibia 26.22957625889055
lfoot -17.757405470697048 14.54986267021939
ltoes -1.470883860007401
239
root 0 0 0 -0.38307945261953336 -33.15963686630083 0.6210527171990066
lowerback 17.29213506541944 0.6185949220075655 -0.6452250846141627
upperback 4.82293120923849 0.4600922144737689 0.21851437040930244
thorax -4.453256452205821 0.1903885659642224 0.43292223047197576
lowerneck -5.134268108647506 -5.456790043614129 -7.666561986552191
upperneck -4.338819061245809 -7.062768783525761 10.743572854329493
head 0.05397555208493454 -3.50143512354287 4.3275214281579375
rclavicle -3.4086897837774966E-15 1.3353935106109534E-16
rhumerus -8.90029848938565 -1.8523910560276455 -70.07262584017865
rradius 11.516758304731447
rwrist 41.67059046853612
rhand -6.488954387725618 19.530159335343505
rfingers 7.125020000000034
rthumb 19.32293371883427 -10.137194977956213
lclavicle -8.583571108726471E-17 2.0213665416312634E-17
lhumerus 17.6631392763928 -32.90545443229632 70.16759667399307
lradius 124.62705624400246
lwrist 53.36867573567423
lhand -26.684943664644052 42.69930058809693
lfingers 7.142105871399736
lthumb 0.027111021230224353 53.08773298949412
rfemur -34.73120296058424 4.236515719152357 7.607692551101516
rtibia 58.685954777927876
rfoot -2.991193204521908 -8.517298766995463
rtoes -3.6432978419973336
lfemur -4.90185299756336 -4.525641933072556 -15.184291629011415
ltibia 26.286904500817204
lfoot -17.73657060049019 14.499902376042954
ltoes -1.5054012968270163
240
root 0 0 0 -0.48868618410290976 -33.50334040930811 0.6971198243558914
lowerback 17.252944882871372 0.5939530211800081 -0.616757084495624
upperback 4.793620419044767 0.4325175683936122 0.23977495181859143
thorax -4.46106922059743 0.17637399177836618 0.4431436621734178
lowerneck -5.223061404359492 -5.3754647977765355 -7.611789533747507
upperneck -4.367977249921308 -6.94457830031085 10.624777198401192
head 0.047779525433923276 -3.445885438789695 4.286791374228891
rclavicle -3.4145452700747007E-15 1.365779654796623E-16
rhumerus -8.886608079404752 -1.8537516521693362 -70.06701734601616
rradius 11.535028493968746
rwrist 41.65830775118586
rhand -6.497471841980227 19.52132539646572
rfingers 7.125020000000034
rthumb 19.314801537976532 -10.145857417578839
lclavicle -1.0703957092410237E-16 2.6111340851623517E-17
lhumerus 17.501874557962967 -32.960106249883985 70.27381273623703
lradius 124.523495121384
lwrist 53.22772456141057
lhand -26.610399590902205 42.66881408579415
lfingers 7.141989058672205
lthumb 0.09876397704287854 53.10915347088285
rfemur -34.74072786311582 4.270954327486281 7.585607470364802
rtibia 58.66116578717834
rfoot -3.0031805446794166 -8.48898464923018
rtoes -3.679036464438228
lfemur -4.934407672267604 -4.51777909430206 -15.180360025644259
ltibia 26.353533013802533
lfoot -17.71273513282348 14.443132885221004
ltoes -1.5444692812441385
241
root 0 0 0 -0.6094922725177963 -33.87363140750763 0.7764183784759371
lowerback 17.201523124176866 0.5670794217458777 -0.5835017291505393
upperback 4.757218149254141 0.4030020929196908 0.2633266127970634
thorax -4.469559672408966 0.1613637692162166 0.4534935395681543
lowerneck -5.328379753368546 -5.285185565922806 -7.549753613371088
upperneck -4.393629501869466 -6.813645584881955 10.49056209267112
head 0.04428837503233485 -3.3841003355689736 4.240410043878663
rclavicle -3.4210827462437744E-15 1.4002294519562165E-16
rhumerus -8.86688225245711 -1.860481380208519 -70.05768839295017
rradius 11.555205703740533
rwrist 41.64555546723212
rhand -6.50825987560574 19.51198492342574
rfingers 7.125020000000034
rthumb 19.304478974697247 -10.155054044301899
lclavicle -1.3132711557448108E-16 3.291419142983323E-17
lhumerus 17.318438203742964 -33.02462510008508 70.39563620116796
lradius 124.40941261056605
lwrist 53.069592947399485
lhand -26.525448839674326 42.63500849253138
lfingers 7.141861353128279
lthumb 0.1804478570824557 53.133179628720704
rfemur -34.748360369806434 4.307767610217937 7.56351768790026
rtibia 58.63276289284474
rfoot -3.0176670435446518 -8.460007599631039
rtoes -3.716817493756971
lfemur -4.973324122908107 -4.507880903529156 -15.17553042919741
ltibia 26.432065770455775
lfoot -17.68540786628748 14.37798484581995
ltoes -1.5892369972051545
242
root 0 0 0 -0.7486107771881527 -34.273560534686354 0.8588507522197686
lowerback 17.134694494409292 0.5376515914562328 -0.5444453334675443
upperback 4.712021816814841 0.37134605026542444 0.289554640728119
thorax -4.478779991677346 0.14525664278682718 0.4638694259740719
lowerneck -5.45383218424238 -5.184440339274763 -7.479050511608361
upperneck -4.414102739918793 -6.667887224984323 10.338039125412182
head 0.04445824276344723 -3.3150229156407174 4.187277750217431
rclavicle -3.42838714784929E-15 1.4394314667906825E-16
rhumerus -8.83955981519131 -1.8740712924377547 -70.0436626532799
rradius 11.577711053663784
rwrist 41.63227831249317
rhand -6.521900663016565 19.50206069814392
rfingers 7.125020000000034
rthumb 19.29140324944462 -10.164871779573094
lclavicle -1.5928445891695796E-16 4.082211189794225E-17
lhumerus 17.107698769762873 -33.102157097672105 70.53704027667052
lradius 124.28375219555258
lwrist 52.89117398801253
lhand -26.427682444396183 42.59742399522209
lfingers 7.141721098044417
lthumb 0.27449092935458985 53.16027955503506
rfemur -34.75391526929455 4.347099624444027 7.541472620521003
rtibia 58.600513655013216
rfoot -3.0347881696431553 -8.430303567539665
rtoes -3.756722656846674
lfemur -5.0203647949975565 -4.495203182963882 -15.169585679157453
ltibia 26.52587866138721
lfoot -17.653932783980846 14.302457616639291
ltoes -1.6411523980617693
243
root 0 0 0 -0.9097631931280912 -34.70601553052238 0.9441009468790174
lowerback 17.048430276830484 0.5053185793849738 -0.498348615722354
upperback 4.655907116167067 0.3373648377134834 0.31890027368950724
thorax -4.48876163302658 0.12796048989621345 0.47410667424438624
lowerneck -5.603831449717495 -5.071462216746596 -7.397983064045141
upperneck -4.427042407269804 -6.50488930489817 10.163740541168044
head 0.049568202175100495 -3.237417791311347 4.126063844650267
rclavicle -3.43654418319327E-15 1.4841577465418966E-16
rhumerus -8.802680410110128 -1.896436145224314 -70.02370463025139
rradius 11.60303305693158
rwrist 41.61844125931466
rhand -6.539118354149679 19.491481062232445
rfingers 7.125020000000034
rthumb 19.27487402701734 -10.175395298276168
lclavicle -1.916176677607757E-16 5.008168447321694E-17
lhumerus 16.86305012385403 -33.19694386700611 70.70322106711988
lradius 124.14546550782228
lwrist 52.68865959287618
lhand -26.313998369622382 42.55553822904406
lfingers 7.1415663152684585
lthumb 0.3838927569684909 53.19102466152077
rfemur -34.75713037411941 4.389022800552224 7.5196051487917455
rtibia 58.56422256560978
rfoot -3.054638023514954 -8.399848678600616
rtoes -3.7987244118827475
lfemur -5.077891572161823 -4.478766439678518 -15.162218820896879
ltibia 26.63938033852641
lfoot -17.61743009287415 14.213986730533342
ltoes -1.7020503738621655
244
root 0 0 0 -1.0972589681905665 -35.17328952463926 1.0315606503382098
lowerback 16.93773136901958 0.4697170183884227 -0.4437310779651673
upperback 4.5862885627856524 0.30091416848903896 0.35185103102724136
thorax -4.4994928950493716 0.10940631899041697 0.4839557890337643
lowerneck -5.78362955463351 -4.944220322468555 -7.304530372411491
upperneck -4.429183459325408 -6.321903096079651 9.963567284954843
head 0.0612958186123711 -3.1498656785863304 4.055184452785834
rclavicle -3.4456305072248156E-15 1.535234093365808E-16
rhumerus -8.753829920280891 -1.9299793190669732 -69.99628327868687
rradius 11.631730376373916
rwrist 41.60403839392653
rhand -6.560798127412831 19.48018444436675
rfingers 7.125020000000034
rthumb 19.25403497090267 -10.186703320120891
lclavicle -2.2916423432432287E-16 6.099353221144492E-17
lhumerus 16.575976147808348 -33.31468085162478 70.90097336220313
lradius 123.99357196909834
lwrist 52.45736805387658
lhand -26.18039642768891 42.508761146773935
lfingers 7.141394603210447
lthumb 0.5125230553699023 53.22610990754847
rfemur -34.75764692387949 4.433485595324206 7.498168859323678
rtibia 58.523776111033925
rfoot -3.077244199662964 -8.368689559937064
rtoes -3.842628059636576
lfemur -5.149085993881192 -4.457284340098662 -15.1529919279266
ltibia 26.778338011044262
lfoot -17.57470239431072 14.109276180860007
ltoes -1.7742549113276618
